<svg width="16" height="16" viewBox="0 0 16 16" fill="none" xmlns="http://www.w3.org/2000/svg">
  <path
    d="M14 6C13.4492 6 13 6.44922 13 7V9C13 9.55078 13.4492 10 14 10C14.5508 10 15 9.55078 15 9V7C15 6.44922 14.5508 6 14 6Z"
    fill="#5E5C64" />
  <path
    d="M2 6C1.44922 6 1 6.44922 1 7V9C1 9.55078 1.44922 10 2 10C2.55078 10 3 9.55078 3 9V7C3 6.44922 2.55078 6 2 6Z"
    fill="#5E5C64" />
  <path
    d="M11 4C10.4492 4 10 4.44922 10 5V11C10 11.5508 10.4492 12 11 12C11.5508 12 12 11.5508 12 11V5C12 4.44922 11.5508 4 11 4Z"
    fill="#5E5C64" />
  <path
    d="M8 0C7.44922 0 7 0.449219 7 1V15C7 15.5508 7.44922 16 8 16C8.55078 16 9 15.5508 9 15V1C9 0.449219 8.55078 0 8 0Z"
    fill="#5E5C64" />
  <path
    d="M5 4C4.44922 4 4 4.44922 4 5V11C4 11.5508 4.44922 12 5 12C5.55078 12 6 11.5508 6 11V5C6 4.44922 5.55078 4 5 4Z"
    fill="#5E5C64" />
</svg>