<svg width="128" height="128" viewBox="0 0 128 128" fill="none" xmlns="http://www.w3.org/2000/svg">
  <path
    d="M96 8H32C18.7452 8 8 18.7452 8 32V96C8 109.255 18.7452 120 32 120H96C109.255 120 120 109.255 120 96V32C120 18.7452 109.255 8 96 8Z"
    fill="url(#paint0_linear_9_54)" />
  <path
    d="M78 41.8462C78 34.1991 71.732 28 64 28C56.268 28 50 34.1991 50 41.8462V59.1538C50 66.8009 56.268 73 64 73C71.732 73 78 66.8009 78 59.1538V41.8462Z"
    fill="url(#paint1_linear_9_54)" />
  <path d="M54 39H74" stroke="#C0BFBC" stroke-width="2" stroke-linecap="round" />
  <path d="M54 45H74" stroke="#C0BFBC" stroke-width="2" stroke-linecap="round" />
  <path d="M54 51H74" stroke="#C0BFBC" stroke-width="2" stroke-linecap="round" />
  <path d="M54 57H74" stroke="#C0BFBC" stroke-width="2" stroke-linecap="round" />
  <path d="M54 63H74" stroke="#C0BFBC" stroke-width="2" stroke-linecap="round" />
  <path
    d="M40 56V64.6842C40 71.1332 42.5286 77.318 47.0294 81.8781C51.5303 86.4382 57.6348 89 64 89C70.3652 89 76.4697 86.4382 80.9706 81.8781C85.4714 77.318 88 71.1332 88 64.6842V56"
    stroke="white" stroke-width="6" stroke-linecap="round" />
  <path d="M64.0002 98L64 77" stroke="white" stroke-width="6" stroke-linecap="round" />
  <path d="M50 100H78" stroke="white" stroke-width="6" stroke-linecap="round" />
  <path
    d="M96 42C101.523 42 106 37.5228 106 32C106 26.4772 101.523 22 96 22C90.4772 22 86 26.4772 86 32C86 37.5228 90.4772 42 96 42Z"
    fill="#E01B24" />
  <path
    d="M96 38C99.3137 38 102 35.3137 102 32C102 28.6863 99.3137 26 96 26C92.6863 26 90 28.6863 90 32C90 35.3137 92.6863 38 96 38Z"
    fill="#F66151" />
  <defs>
    <linearGradient id="paint0_linear_9_54" x1="8" y1="8" x2="8" y2="11208"
      gradientUnits="userSpaceOnUse">
      <stop stop-color="#3584E4" />
      <stop offset="1" stop-color="#1C71D8" />
    </linearGradient>
    <linearGradient id="paint1_linear_9_54" x1="50" y1="28" x2="50" y2="4528"
      gradientUnits="userSpaceOnUse">
      <stop stop-color="white" />
      <stop offset="1" stop-color="#DEDDDA" />
    </linearGradient>
  </defs>
</svg>